<svg id="BACKGROUND" xmlns="http://www.w3.org/2000/svg" xmlns:xlink="http://www.w3.org/1999/xlink" viewBox="0 0 1200 800"><defs><style>.cls-1,.cls-4{fill:none;}.cls-2{fill:url(#Degradado_sin_nombre_5);}.cls-3{fill:#ff0b53;}.cls-4{stroke:#ff0b53;stroke-miterlimit:10;stroke-width:4px;}.cls-5{clip-path:url(#clip-path);}</style><linearGradient id="Degradado_sin_nombre_5" x1="-10.08" y1="800.83" x2="1192.38" y2="10.71" gradientUnits="userSpaceOnUse"><stop offset="0" stop-color="#fff"/><stop offset="1" stop-color="#e1e1e1"/></linearGradient><clipPath id="clip-path"><rect class="cls-1" x="-0.15" width="1200.15" height="800"/></clipPath></defs><title>Mesa de trabajo 1</title><rect class="cls-2" x="-0.15" width="1200.15" height="800"/><circle class="cls-3" cx="945.24" cy="192.98" r="141.14" transform="translate(140.4 724.91) rotate(-45)"/><polygon class="cls-4" points="1078.78 475.51 1110.25 506.98 1141.72 475.51 1165.21 499 1133.74 530.47 1165.21 561.95 1141.72 585.44 1110.25 553.96 1078.78 585.44 1055.28 561.95 1086.76 530.47 1055.28 499 1078.78 475.51"/><polygon class="cls-3" points="160.85 301.39 217.31 357.86 273.78 301.39 315.92 343.54 259.46 400 315.92 456.46 273.78 498.61 217.31 442.14 160.85 498.61 118.71 456.46 175.17 400 118.7 343.54 160.85 301.39"/><g class="cls-5"><path class="cls-3" d="M164.63,877.75c0,254.93,206.66,461.59,461.59,461.59s461.58-206.66,461.58-461.59S881.14,416.17,626.22,416.17,164.63,622.83,164.63,877.75Zm145.52,0c0-174.55,141.51-316.06,316.07-316.06S942.28,703.2,942.28,877.75s-141.51,316.06-316.06,316.06S310.15,1052.31,310.15,877.75Z"/><path class="cls-3" d="M32.56-10.51c0,127.26,103.16,230.42,230.42,230.42S493.4,116.75,493.4-10.51,390.24-240.93,263-240.93,32.56-137.76,32.56-10.51Zm115.78,0A114.65,114.65,0,0,1,263-125.15,114.65,114.65,0,0,1,377.62-10.51,114.64,114.64,0,0,1,263,104.13,114.64,114.64,0,0,1,148.34-10.51Z"/></g></svg>