<svg xmlns="http://www.w3.org/2000/svg" viewBox="0 0 497.86 629.02"><defs><style>.cls-1{fill:#f2f2f2;}.cls-2{fill:#3f3d56;}.cls-3{fill:#ff0b53;}.cls-4{opacity:0.2;isolation:isolate;}.cls-5{fill:#2f2e41;}.cls-6{fill:#a0616a;}</style></defs><title>thumbnail</title><g id="Layer_2" data-name="Layer 2"><g id="bcdff026-9b21-4da7-924c-007c0e295dcb"><circle class="cls-1" cx="235.99" cy="374.28" r="216.46"/><ellipse class="cls-2" cx="205.41" cy="600.96" rx="205.41" ry="28.06"/><ellipse class="cls-2" cx="211.29" cy="25.68" rx="14.54" ry="7.06" transform="translate(2.83 68.66) rotate(-18.58)"/><path class="cls-3" d="M181.82,57.85,258.09,23.1S387.31-25.75,497.86,93.48c0,0-49.54-31.8-87.1,10.21,0,0-70.66-19.12-130,51.12,0,0-92.74,14.05-131.37,63.27,0,0-43.07-6.62-60.21,48a1.64,1.64,0,0,1-2,1.07,1.72,1.72,0,0,1-.66-.4h0a1.72,1.72,0,0,1-.46-.86C84.44,257.43,65.5,144.88,181.82,57.85Z"/><path class="cls-4" d="M181.82,57.85,258.09,23.1S387.31-25.75,497.86,93.48c0,0-49.54-31.8-87.1,10.21,0,0-70.66-19.12-130,51.12,0,0-92.74,14.05-131.37,63.27,0,0-43.07-6.62-60.21,48a1.64,1.64,0,0,1-2,1.07,1.72,1.72,0,0,1-.66-.4h0a1.72,1.72,0,0,1-.46-.86C84.44,257.43,65.5,144.88,181.82,57.85Z"/><polygon class="cls-5" points="205.05 201.85 236.81 207.15 247.39 156.86 221.81 146.27 205.05 201.85"/><circle class="cls-6" cx="248.72" cy="164.36" r="27.35"/><path class="cls-6" d="M236.81,179.79s2.64,33.53-17.65,36.18,17.65,62.64,27.35,61.76,27.35-65.29,27.35-65.29-22.94-15.88-15-30Z"/><path class="cls-6" d="M202.84,302s3.53,25.58,14.12,25.58-7.06-29.11-7.06-29.11Z"/><path class="cls-6" d="M357.24,327.57s26.46,22.06,22.93,29.12-26.46-7.94-28.23-25.59Z"/><path class="cls-6" d="M197.55,412.27l-16.77,62.64-18.52,75.87H179.9s6.18-23.82,17.65-36.17c0,0,11.47-19.41,11.47-32.64l27.35-64.41Z"/><path class="cls-6" d="M269.89,415.8l5.3,59.11s-.89,42.35,0,52.05,0,23.82,0,23.82h15.88s15-52,10.58-80.28l6.18-66.17Z"/><path class="cls-5" d="M248.72,253.46S225,234.63,231.1,208.31c0,0-23.85,1-33.55,10.74s2.64,42.35,2.64,42.35,21.18,35.29,17.65,51.17-41.47,99.7-29.12,105S276.07,441.38,314,410.5c0,0,9.71-87.34-29.11-115.57V272.87s7.06-6.17,3.53-22.05c0,0,15-27.35,6.17-32.65s-29.08-13-29.08-13S267.25,244.64,248.72,253.46Z"/><path class="cls-5" d="M202.84,219.05s-11.47-1.76-22.94,15-41.46,43.23-27.35,56.47,52,22.05,52,22.05l8.83-15.88-37.94-18.52,31.76-23.82Z"/><path class="cls-5" d="M290.18,219.05s12.36,0,17.65,15S344,300.22,344,300.22l17.65,27.35-12.36,14.12-34.4-38.82-32.65-53.82Z"/><path class="cls-5" d="M183.43,549h-24.7l-5.3,43.23s-14.11,22.94,7.06,20.29,14.12-26.47,14.12-26.47l5.29-8.82,1.77,18.53,1.76-.88V574.6S193.14,565.78,183.43,549Z"/><path class="cls-5" d="M295.48,549l-22.94-1.77-4.41,49.41s-2.65,18.53,13.23,15.88S292,594.9,292,594.9V567.55Z"/><path class="cls-5" d="M228.87,136.56s-12.86,4.29-13.51,21.21a29.77,29.77,0,0,0,.89,8c.73,3.07,1.19,9.67-4.42,18.29a183.12,183.12,0,0,0-10.27,17.68l0,.08,14.11,1.77,3-23.4a116.58,116.58,0,0,1,9.26-32.85l.09-.22s6.18,11.47,18.53,11.47l-4.41-4.41s19.41,7.94,26.47,7.94c0,0,5.29,3.53,0,8.82s-15.88,17.65-9.71,27.35.89,12.35.89,12.35l9.7-5.29,4.41-2.65v3.53l22.94-2.64s6.18-.89-7.06-15.89c0,0-3.49-5.82-2-10.84a25.47,25.47,0,0,0,1-11.85C285.78,148.5,274.14,115.62,228.87,136.56Z"/><path class="cls-2" d="M366.83,355.12c8.73-8.87-.94-27.26-1.69-28.66L265.43,122.87a2.59,2.59,0,0,0-4.66,2.28l99.75,203.7,0,0c.1.18,9.73,18.46,1.15,23.7-9.23,5.65-20-3.5-20.11-3.59a2.59,2.59,0,1,0-3.4,3.92h0c.56.48,13.78,11.69,26.21,4.09A12.34,12.34,0,0,0,366.83,355.12Z"/><path class="cls-3" d="M174.68,43.25,248.56,9.59s125.15-47.3,232.22,68.17c0,0-48-30.8-84.36,9.89,0,0-68.43-18.52-125.87,49.51,0,0-89.82,13.61-127.24,61.28,0,0-43-6.62-59.06,48.95L82,245.21S57.58,130.87,174.68,43.25Z"/><path class="cls-2" d="M175.05,43S138.88,164.8,143.29,198.32"/><path class="cls-2" d="M213.28,25.67s45.58,103,57,111.78"/><path class="cls-2" d="M248.28,9.52S365.62,80.1,396.5,88"/><path class="cls-2" d="M71.86,596.27c-.21-.34-5.21-8.69-6.94-26-1.59-15.9-.57-42.71,13.33-80.1,26.34-70.85-6.07-128-6.4-128.57l1.6-.93c.09.14,8.45,14.72,13.39,37.92A165.45,165.45,0,0,1,80,490.78C53.69,561.5,73.24,595,73.44,595.31Z"/><circle class="cls-2" cx="61.56" cy="345.4" r="12.01"/><circle class="cls-2" cx="99.45" cy="389.75" r="12.01"/><circle class="cls-3" cx="73.58" cy="419.31" r="12.01"/><circle class="cls-3" cx="104.99" cy="444.26" r="12.01"/><circle class="cls-2" cx="64.34" cy="483.07" r="12.01"/><path class="cls-2" d="M79.12,596.71s-12-29.56,24-51.74Z"/><path class="cls-2" d="M64.35,596.18S58.88,564.74,16.57,565Z"/></g></g></svg>